# xmcd CD database file
#
# Track frame offsets:
#	182
#	10565
#	20755
#	33182
#	43960
#	54497
#	65732
#	83180
#	101307
#	114405
#	139510
#	153282
#	166057
#
# Disc length: 2516 seconds
#
# Revision: 6
# Processed by: cddbd v1.5.2PL0 Copyright (c) Steve Scherf et al.
# Submitted via: CDex 1.51
#
DISCID=9909d20d
DTITLE=Johnny Cash - American Recordings 1
DYEAR=1994
DGENRE=Country
TTITLE0=Delia's Gone
TTITLE1=Let The Train Blow The Whistle
TTITLE2=The Beast In Me
TTITLE3=Drive On
TTITLE4=Why Me Lord
TTITLE5=Thirteen
TTITLE6=Oh Bury Me Not
TTITLE7=Bird On A Wire
TTITLE8=Tennessee Stud
TTITLE9=Down There By The Train
TTITLE10=Redemption
TTITLE11=Like A Soldier
TTITLE12=The Man Who Couldn't Cry
EXTD=YEAR: 1994
EXTT0=
EXTT1=
EXTT2=
EXTT3=
EXTT4=
EXTT5=
EXTT6=
EXTT7=
EXTT8=
EXTT9=
EXTT10=
EXTT11=
EXTT12=
PLAYORDER=
